<?xml version="1.0" encoding="UTF-8" standalone="no"?>
<!-- Created with Inkscape (http://www.inkscape.org/) -->
<svg
   xmlns:dc="http://purl.org/dc/elements/1.1/"
   xmlns:cc="http://creativecommons.org/ns#"
   xmlns:rdf="http://www.w3.org/1999/02/22-rdf-syntax-ns#"
   xmlns:svg="http://www.w3.org/2000/svg"
   xmlns="http://www.w3.org/2000/svg"
   xmlns:sodipodi="http://sodipodi.sourceforge.net/DTD/sodipodi-0.dtd"
   xmlns:inkscape="http://www.inkscape.org/namespaces/inkscape"
   id="svg2"
   sodipodi:version="0.32"
   inkscape:version="0.46"
   width="213.43625"
   height="320.9725"
   xml:space="preserve"
   sodipodi:docname="isologopluslinewhite.svg"
   inkscape:output_extension="org.inkscape.output.svg.inkscape"><metadata
     id="metadata7"><rdf:RDF><cc:Work
         rdf:about=""><dc:format>image/svg+xml</dc:format><dc:type
           rdf:resource="http://purl.org/dc/dcmitype/StillImage" /></cc:Work></rdf:RDF></metadata><defs
     id="defs5"><inkscape:perspective
       sodipodi:type="inkscape:persp3d"
       inkscape:vp_x="0 : 526.18109 : 1"
       inkscape:vp_y="0 : 1000 : 0"
       inkscape:vp_z="744.09448 : 526.18109 : 1"
       inkscape:persp3d-origin="372.04724 : 350.78739 : 1"
       id="perspective9" /><clipPath
       clipPathUnits="userSpaceOnUse"
       id="clipPath17"><path
         d="M 0,595.276 L 841.89,595.276 L 841.89,0 L 0,0 L 0,595.276 z"
         id="path19" /></clipPath><clipPath
       clipPathUnits="userSpaceOnUse"
       id="clipPath25"><path
         d="M 341.58,371.802 L 356.614,371.802 L 356.614,356.756 L 341.58,356.756 L 341.58,371.802 z"
         id="path27" /></clipPath><clipPath
       clipPathUnits="userSpaceOnUse"
       id="clipPath39"><path
         d="M 341.58,354.142 L 356.614,354.142 L 356.614,339.103 L 341.58,339.103 L 341.58,354.142 z"
         id="path41" /></clipPath><clipPath
       clipPathUnits="userSpaceOnUse"
       id="clipPath53"><path
         d="M 359.23,371.802 L 374.268,371.802 L 374.268,356.756 L 359.23,356.756 L 359.23,371.802 z"
         id="path55" /></clipPath><clipPath
       clipPathUnits="userSpaceOnUse"
       id="clipPath67"><path
         d="M 359.23,354.142 L 374.268,354.142 L 374.268,339.103 L 359.23,339.103 L 359.23,354.142 z"
         id="path69" /></clipPath><clipPath
       clipPathUnits="userSpaceOnUse"
       id="clipPath81"><path
         d="M 376.876,371.802 L 391.921,371.802 L 391.921,356.756 L 376.876,356.756 L 376.876,371.802 z"
         id="path83" /></clipPath><clipPath
       clipPathUnits="userSpaceOnUse"
       id="clipPath97"><path
         d="M 0,595.276 L 841.89,595.276 L 841.89,0 L 0,0 L 0,595.276 z"
         id="path99" /></clipPath><clipPath
       clipPathUnits="userSpaceOnUse"
       id="clipPath105"><path
         d="M 376.876,336.491 L 391.921,336.491 L 391.921,321.456 L 376.876,321.456 L 376.876,336.491 z"
         id="path107" /></clipPath><clipPath
       clipPathUnits="userSpaceOnUse"
       id="clipPath121"><path
         d="M 0,595.276 L 841.89,595.276 L 841.89,0 L 0,0 L 0,595.276 z"
         id="path123" /></clipPath><clipPath
       clipPathUnits="userSpaceOnUse"
       id="clipPath129"><path
         d="M 394.532,371.802 L 409.569,371.802 L 409.569,356.756 L 394.532,356.756 L 394.532,371.802 z"
         id="path131" /></clipPath><clipPath
       clipPathUnits="userSpaceOnUse"
       id="clipPath151"><path
         d="M 0,595.276 L 841.89,595.276 L 841.89,0 L 0,0 L 0,595.276 z"
         id="path153" /></clipPath><clipPath
       clipPathUnits="userSpaceOnUse"
       id="clipPath159"><path
         d="M 394.532,389.452 L 409.569,389.452 L 409.569,374.413 L 394.532,374.413 L 394.532,389.452 z"
         id="path161" /></clipPath><clipPath
       clipPathUnits="userSpaceOnUse"
       id="clipPath175"><path
         d="M 0,595.276 L 841.89,595.276 L 841.89,0 L 0,0 L 0,595.276 z"
         id="path177" /></clipPath><clipPath
       clipPathUnits="userSpaceOnUse"
       id="clipPath183"><path
         d="M 412.186,424.752 L 427.223,424.752 L 427.223,409.717 L 412.186,409.717 L 412.186,424.752 z"
         id="path185" /></clipPath><clipPath
       clipPathUnits="userSpaceOnUse"
       id="clipPath197"><path
         d="M 394.532,407.099 L 409.569,407.099 L 409.569,392.063 L 394.532,392.063 L 394.532,407.099 z"
         id="path199" /></clipPath><clipPath
       clipPathUnits="userSpaceOnUse"
       id="clipPath211"><path
         d="M 394.532,336.491 L 409.569,336.491 L 409.569,321.456 L 394.532,321.456 L 394.532,336.491 z"
         id="path213" /></clipPath><clipPath
       clipPathUnits="userSpaceOnUse"
       id="clipPath225"><path
         d="M 412.186,318.841 L 427.223,318.841 L 427.223,303.806 L 412.186,303.806 L 412.186,318.841 z"
         id="path227" /></clipPath><clipPath
       clipPathUnits="userSpaceOnUse"
       id="clipPath241"><path
         d="M 0,595.276 L 841.89,595.276 L 841.89,0 L 0,0 L 0,595.276 z"
         id="path243" /></clipPath><clipPath
       clipPathUnits="userSpaceOnUse"
       id="clipPath249"><path
         d="M 376.876,318.841 L 391.921,318.841 L 391.921,303.806 L 376.876,303.806 L 376.876,318.841 z"
         id="path251" /></clipPath><clipPath
       clipPathUnits="userSpaceOnUse"
       id="clipPath263"><path
         d="M 394.532,301.184 L 409.569,301.184 L 409.569,286.152 L 394.532,286.152 L 394.532,301.184 z"
         id="path265" /></clipPath><clipPath
       clipPathUnits="userSpaceOnUse"
       id="clipPath279"><path
         d="M 0,595.276 L 841.89,595.276 L 841.89,0 L 0,0 L 0,595.276 z"
         id="path281" /></clipPath><clipPath
       clipPathUnits="userSpaceOnUse"
       id="clipPath287"><path
         d="M 359.23,301.184 L 374.268,301.184 L 374.268,286.152 L 359.23,286.152 L 359.23,301.184 z"
         id="path289" /></clipPath><clipPath
       clipPathUnits="userSpaceOnUse"
       id="clipPath301"><path
         d="M 394.532,283.53 L 409.569,283.53 L 409.569,268.495 L 394.532,268.495 L 394.532,283.53 z"
         id="path303" /></clipPath><clipPath
       clipPathUnits="userSpaceOnUse"
       id="clipPath315"><path
         d="M 376.876,283.53 L 391.921,283.53 L 391.921,268.495 L 376.876,268.495 L 376.876,283.53 z"
         id="path317" /></clipPath><clipPath
       clipPathUnits="userSpaceOnUse"
       id="clipPath329"><path
         d="M 359.23,283.53 L 374.268,283.53 L 374.268,268.495 L 359.23,268.495 L 359.23,283.53 z"
         id="path331" /></clipPath><clipPath
       clipPathUnits="userSpaceOnUse"
       id="clipPath343"><path
         d="M 482.797,371.802 L 497.836,371.802 L 497.836,356.756 L 482.797,356.756 L 482.797,371.802 z"
         id="path345" /></clipPath><clipPath
       clipPathUnits="userSpaceOnUse"
       id="clipPath357"><path
         d="M 482.797,354.142 L 497.836,354.142 L 497.836,339.103 L 482.797,339.103 L 482.797,354.142 z"
         id="path359" /></clipPath><clipPath
       clipPathUnits="userSpaceOnUse"
       id="clipPath371"><path
         d="M 465.146,371.802 L 480.186,371.802 L 480.186,356.756 L 465.146,356.756 L 465.146,371.802 z"
         id="path373" /></clipPath><clipPath
       clipPathUnits="userSpaceOnUse"
       id="clipPath385"><path
         d="M 465.146,354.142 L 480.186,354.142 L 480.186,339.103 L 465.146,339.103 L 465.146,354.142 z"
         id="path387" /></clipPath><clipPath
       clipPathUnits="userSpaceOnUse"
       id="clipPath399"><path
         d="M 447.496,371.802 L 462.532,371.802 L 462.532,356.756 L 447.496,356.756 L 447.496,371.802 z"
         id="path401" /></clipPath><clipPath
       clipPathUnits="userSpaceOnUse"
       id="clipPath415"><path
         d="M 0,595.276 L 841.89,595.276 L 841.89,0 L 0,0 L 0,595.276 z"
         id="path417" /></clipPath><clipPath
       clipPathUnits="userSpaceOnUse"
       id="clipPath423"><path
         d="M 447.496,336.491 L 462.532,336.491 L 462.532,321.456 L 447.496,321.456 L 447.496,336.491 z"
         id="path425" /></clipPath><clipPath
       clipPathUnits="userSpaceOnUse"
       id="clipPath437"><path
         d="M 429.839,371.802 L 444.878,371.802 L 444.878,356.756 L 429.839,356.756 L 429.839,371.802 z"
         id="path439" /></clipPath><clipPath
       clipPathUnits="userSpaceOnUse"
       id="clipPath453"><path
         d="M 0,595.276 L 841.89,595.276 L 841.89,0 L 0,0 L 0,595.276 z"
         id="path455" /></clipPath><clipPath
       clipPathUnits="userSpaceOnUse"
       id="clipPath461"><path
         d="M 429.839,389.452 L 444.878,389.452 L 444.878,374.413 L 429.839,374.413 L 429.839,389.452 z"
         id="path463" /></clipPath><clipPath
       clipPathUnits="userSpaceOnUse"
       id="clipPath475"><path
         d="M 429.839,407.099 L 444.878,407.099 L 444.878,392.063 L 429.839,392.063 L 429.839,407.099 z"
         id="path477" /></clipPath><clipPath
       clipPathUnits="userSpaceOnUse"
       id="clipPath489"><path
         d="M 429.839,336.491 L 444.878,336.491 L 444.878,321.456 L 429.839,321.456 L 429.839,336.491 z"
         id="path491" /></clipPath><clipPath
       clipPathUnits="userSpaceOnUse"
       id="clipPath505"><path
         d="M 0,595.276 L 841.89,595.276 L 841.89,0 L 0,0 L 0,595.276 z"
         id="path507" /></clipPath><clipPath
       clipPathUnits="userSpaceOnUse"
       id="clipPath513"><path
         d="M 447.496,318.841 L 462.532,318.841 L 462.532,303.806 L 447.496,303.806 L 447.496,318.841 z"
         id="path515" /></clipPath><clipPath
       clipPathUnits="userSpaceOnUse"
       id="clipPath527"><path
         d="M 429.839,301.184 L 444.878,301.184 L 444.878,286.152 L 429.839,286.152 L 429.839,301.184 z"
         id="path529" /></clipPath><clipPath
       clipPathUnits="userSpaceOnUse"
       id="clipPath543"><path
         d="M 0,595.276 L 841.89,595.276 L 841.89,0 L 0,0 L 0,595.276 z"
         id="path545" /></clipPath><clipPath
       clipPathUnits="userSpaceOnUse"
       id="clipPath551"><path
         d="M 465.146,301.184 L 480.186,301.184 L 480.186,286.152 L 465.146,286.152 L 465.146,301.184 z"
         id="path553" /></clipPath><clipPath
       clipPathUnits="userSpaceOnUse"
       id="clipPath565"><path
         d="M 429.839,283.53 L 444.878,283.53 L 444.878,268.495 L 429.839,268.495 L 429.839,283.53 z"
         id="path567" /></clipPath><clipPath
       clipPathUnits="userSpaceOnUse"
       id="clipPath579"><path
         d="M 447.496,283.53 L 462.532,283.53 L 462.532,268.495 L 447.496,268.495 L 447.496,283.53 z"
         id="path581" /></clipPath><clipPath
       clipPathUnits="userSpaceOnUse"
       id="clipPath593"><path
         d="M 465.146,283.53 L 480.186,283.53 L 480.186,268.495 L 465.146,268.495 L 465.146,283.53 z"
         id="path595" /></clipPath></defs><sodipodi:namedview
     inkscape:window-height="770"
     inkscape:window-width="640"
     inkscape:pageshadow="2"
     inkscape:pageopacity="0.0"
     guidetolerance="10.0"
     gridtolerance="10.0"
     objecttolerance="10.0"
     borderopacity="1.0"
     bordercolor="#666666"
     pagecolor="#ffffff"
     id="base"
     showgrid="false"
     inkscape:zoom="1.4518378"
     inkscape:cx="106.71812"
     inkscape:cy="160.48625"
     inkscape:window-x="1118"
     inkscape:window-y="269"
     inkscape:current-layer="g11" /><g
     id="g11"
     inkscape:groupmode="layer"
     inkscape:label="isologopluslinewhite"
     transform="matrix(1.25,0,0,-1.25,-418.00375,530.94)"><g
       id="g13"><g
         id="g15"
         clip-path="url(#clipPath17)"><g
           id="g21"><g
             id="g23" /><g
             id="g29"><g
               clip-path="url(#clipPath25)"
               opacity="0.720001"
               id="g31"><path
                 d="M 356.614,356.756 L 341.58,356.756 L 341.58,371.802 L 356.614,371.802 L 356.614,356.756 z"
                 style="fill:#e51a23;fill-opacity:1;fill-rule:nonzero;stroke:none"
                 id="path33" /></g></g></g><g
           id="g35"><g
             id="g37" /><g
             id="g43"><g
               clip-path="url(#clipPath39)"
               opacity="0.300003"
               id="g45"><path
                 d="M 356.614,339.103 L 341.58,339.103 L 341.58,354.142 L 356.614,354.142 L 356.614,339.103 z"
                 style="fill:#e51a23;fill-opacity:1;fill-rule:nonzero;stroke:none"
                 id="path47" /></g></g></g><g
           id="g49"><g
             id="g51" /><g
             id="g57"><g
               clip-path="url(#clipPath53)"
               opacity="0.970001"
               id="g59"><path
                 d="M 374.268,356.756 L 359.23,356.756 L 359.23,371.802 L 374.268,371.802 L 374.268,356.756 z"
                 style="fill:#e51a23;fill-opacity:1;fill-rule:nonzero;stroke:none"
                 id="path61" /></g></g></g><g
           id="g63"><g
             id="g65" /><g
             id="g71"><g
               clip-path="url(#clipPath67)"
               opacity="0.940002"
               id="g73"><path
                 d="M 374.268,339.103 L 359.23,339.103 L 359.23,354.142 L 374.268,354.142 L 374.268,339.103 z"
                 style="fill:#e51a23;fill-opacity:1;fill-rule:nonzero;stroke:none"
                 id="path75" /></g></g></g><g
           id="g77"><g
             id="g79" /><g
             id="g85"><g
               clip-path="url(#clipPath81)"
               opacity="0.75"
               id="g87"><path
                 d="M 391.921,356.756 L 376.877,356.756 L 376.877,371.802 L 391.921,371.802 L 391.921,356.756 z"
                 style="fill:#e51a23;fill-opacity:1;fill-rule:nonzero;stroke:none"
                 id="path89" /></g></g></g></g></g><path
       d="M 391.921,339.103 L 376.877,339.103 L 376.877,354.142 L 391.921,354.142 L 391.921,339.103 z"
       style="fill:#e51a23;fill-opacity:1;fill-rule:nonzero;stroke:none"
       id="path91" /><g
       id="g93"><g
         id="g95"
         clip-path="url(#clipPath97)"><g
           id="g101"><g
             id="g103" /><g
             id="g109"><g
               clip-path="url(#clipPath105)"
               opacity="0.240005"
               id="g111"><path
                 d="M 391.921,321.456 L 376.877,321.456 L 376.877,336.491 L 391.921,336.491 L 391.921,321.456 z"
                 style="fill:#e51a23;fill-opacity:1;fill-rule:nonzero;stroke:none"
                 id="path113" /></g></g></g></g></g><path
       d="M 412.186,371.802 L 427.223,371.802 L 427.223,356.756 L 412.186,356.756 L 412.186,371.802 z"
       style="fill:#e51a23;fill-opacity:1;fill-rule:nonzero;stroke:none"
       id="path115" /><g
       id="g117"><g
         id="g119"
         clip-path="url(#clipPath121)"><g
           id="g125"><g
             id="g127" /><g
             id="g133"><g
               clip-path="url(#clipPath129)"
               opacity="0.509995"
               id="g135"><path
                 d="M 394.532,371.802 L 409.569,371.802 L 409.569,356.756 L 394.532,356.756 L 394.532,371.802 z"
                 style="fill:#e51a23;fill-opacity:1;fill-rule:nonzero;stroke:none"
                 id="path137" /></g></g></g></g></g><path
       d="M 412.186,354.142 L 427.223,354.142 L 427.223,339.103 L 412.186,339.103 L 412.186,354.142 z"
       style="fill:#e51a23;fill-opacity:1;fill-rule:nonzero;stroke:none"
       id="path139" /><path
       d="M 394.532,354.142 L 409.569,354.142 L 409.569,339.103 L 394.532,339.103 L 394.532,354.142 z"
       style="fill:#e51a23;fill-opacity:1;fill-rule:nonzero;stroke:none"
       id="path141" /><path
       d="M 412.186,336.491 L 427.223,336.491 L 427.223,321.456 L 412.186,321.456 L 412.186,336.491 z"
       style="fill:#e51a23;fill-opacity:1;fill-rule:nonzero;stroke:none"
       id="path143" /><path
       d="M 412.186,389.452 L 427.223,389.452 L 427.223,374.413 L 412.186,374.413 L 412.186,389.452 z"
       style="fill:#e51a23;fill-opacity:1;fill-rule:nonzero;stroke:none"
       id="path145" /><g
       id="g147"><g
         id="g149"
         clip-path="url(#clipPath151)"><g
           id="g155"><g
             id="g157" /><g
             id="g163"><g
               clip-path="url(#clipPath159)"
               opacity="0.490005"
               id="g165"><path
                 d="M 394.532,389.452 L 409.569,389.452 L 409.569,374.413 L 394.532,374.413 L 394.532,389.452 z"
                 style="fill:#e51a23;fill-opacity:1;fill-rule:nonzero;stroke:none"
                 id="path167" /></g></g></g></g></g><path
       d="M 412.186,407.099 L 427.223,407.099 L 427.223,392.064 L 412.186,392.064 L 412.186,407.099 z"
       style="fill:#e51a23;fill-opacity:1;fill-rule:nonzero;stroke:none"
       id="path169" /><g
       id="g171"><g
         id="g173"
         clip-path="url(#clipPath175)"><g
           id="g179"><g
             id="g181" /><g
             id="g187"><g
               clip-path="url(#clipPath183)"
               opacity="0.509995"
               id="g189"><path
                 d="M 412.186,424.752 L 427.223,424.752 L 427.223,409.716 L 412.186,409.716 L 412.186,424.752 z"
                 style="fill:#e51a23;fill-opacity:1;fill-rule:nonzero;stroke:none"
                 id="path191" /></g></g></g><g
           id="g193"><g
             id="g195" /><g
             id="g201"><g
               clip-path="url(#clipPath197)"
               opacity="0.429993"
               id="g203"><path
                 d="M 394.532,407.099 L 409.569,407.099 L 409.569,392.064 L 394.532,392.064 L 394.532,407.099 z"
                 style="fill:#e51a23;fill-opacity:1;fill-rule:nonzero;stroke:none"
                 id="path205" /></g></g></g><g
           id="g207"><g
             id="g209" /><g
             id="g215"><g
               clip-path="url(#clipPath211)"
               opacity="0.929993"
               id="g217"><path
                 d="M 394.532,336.491 L 409.569,336.491 L 409.569,321.456 L 394.532,321.456 L 394.532,336.491 z"
                 style="fill:#e51a23;fill-opacity:1;fill-rule:nonzero;stroke:none"
                 id="path219" /></g></g></g><g
           id="g221"><g
             id="g223" /><g
             id="g229"><g
               clip-path="url(#clipPath225)"
               opacity="0.619995"
               id="g231"><path
                 d="M 412.186,318.841 L 427.223,318.841 L 427.223,303.805 L 412.186,303.805 L 412.186,318.841 z"
                 style="fill:#e51a23;fill-opacity:1;fill-rule:nonzero;stroke:none"
                 id="path233" /></g></g></g></g></g><path
       d="M 394.532,318.841 L 409.569,318.841 L 409.569,303.805 L 394.532,303.805 L 394.532,318.841 z"
       style="fill:#e51a23;fill-opacity:1;fill-rule:nonzero;stroke:none"
       id="path235" /><g
       id="g237"><g
         id="g239"
         clip-path="url(#clipPath241)"><g
           id="g245"><g
             id="g247" /><g
             id="g253"><g
               clip-path="url(#clipPath249)"
               opacity="0.860001"
               id="g255"><path
                 d="M 376.876,318.841 L 391.92,318.841 L 391.92,303.805 L 376.876,303.805 L 376.876,318.841 z"
                 style="fill:#e51a23;fill-opacity:1;fill-rule:nonzero;stroke:none"
                 id="path257" /></g></g></g><g
           id="g259"><g
             id="g261" /><g
             id="g267"><g
               clip-path="url(#clipPath263)"
               opacity="0.770004"
               id="g269"><path
                 d="M 394.532,301.184 L 409.569,301.184 L 409.569,286.152 L 394.532,286.152 L 394.532,301.184 z"
                 style="fill:#e51a23;fill-opacity:1;fill-rule:nonzero;stroke:none"
                 id="path271" /></g></g></g></g></g><path
       d="M 376.876,301.184 L 391.92,301.184 L 391.92,286.152 L 376.876,286.152 L 376.876,301.184 z"
       style="fill:#e51a23;fill-opacity:1;fill-rule:nonzero;stroke:none"
       id="path273" /><g
       id="g275"><g
         id="g277"
         clip-path="url(#clipPath279)"><g
           id="g283"><g
             id="g285" /><g
             id="g291"><g
               clip-path="url(#clipPath287)"
               opacity="0.350006"
               id="g293"><path
                 d="M 359.23,301.184 L 374.268,301.184 L 374.268,286.152 L 359.23,286.152 L 359.23,301.184 z"
                 style="fill:#e51a23;fill-opacity:1;fill-rule:nonzero;stroke:none"
                 id="path295" /></g></g></g><g
           id="g297"><g
             id="g299" /><g
             id="g305"><g
               clip-path="url(#clipPath301)"
               opacity="0.0599976"
               id="g307"><path
                 d="M 394.532,283.53 L 409.569,283.53 L 409.569,268.495 L 394.532,268.495 L 394.532,283.53 z"
                 style="fill:#e51a23;fill-opacity:1;fill-rule:nonzero;stroke:none"
                 id="path309" /></g></g></g><g
           id="g311"><g
             id="g313" /><g
             id="g319"><g
               clip-path="url(#clipPath315)"
               opacity="0.490005"
               id="g321"><path
                 d="M 376.876,283.53 L 391.92,283.53 L 391.92,268.495 L 376.876,268.495 L 376.876,283.53 z"
                 style="fill:#e51a23;fill-opacity:1;fill-rule:nonzero;stroke:none"
                 id="path323" /></g></g></g><g
           id="g325"><g
             id="g327" /><g
             id="g333"><g
               clip-path="url(#clipPath329)"
               opacity="0.199997"
               id="g335"><path
                 d="M 359.23,283.53 L 374.268,283.53 L 374.268,268.495 L 359.23,268.495 L 359.23,283.53 z"
                 style="fill:#e51a23;fill-opacity:1;fill-rule:nonzero;stroke:none"
                 id="path337" /></g></g></g><g
           id="g339"><g
             id="g341" /><g
             id="g347"><g
               clip-path="url(#clipPath343)"
               opacity="0.720001"
               id="g349"><path
                 d="M 482.797,356.756 L 497.836,356.756 L 497.836,371.802 L 482.797,371.802 L 482.797,356.756 z"
                 style="fill:#e51a23;fill-opacity:1;fill-rule:nonzero;stroke:none"
                 id="path351" /></g></g></g><g
           id="g353"><g
             id="g355" /><g
             id="g361"><g
               clip-path="url(#clipPath357)"
               opacity="0.300003"
               id="g363"><path
                 d="M 482.797,339.103 L 497.836,339.103 L 497.836,354.142 L 482.797,354.142 L 482.797,339.103 z"
                 style="fill:#e51a23;fill-opacity:1;fill-rule:nonzero;stroke:none"
                 id="path365" /></g></g></g><g
           id="g367"><g
             id="g369" /><g
             id="g375"><g
               clip-path="url(#clipPath371)"
               opacity="0.970001"
               id="g377"><path
                 d="M 465.146,356.756 L 480.185,356.756 L 480.185,371.802 L 465.146,371.802 L 465.146,356.756 z"
                 style="fill:#e51a23;fill-opacity:1;fill-rule:nonzero;stroke:none"
                 id="path379" /></g></g></g><g
           id="g381"><g
             id="g383" /><g
             id="g389"><g
               clip-path="url(#clipPath385)"
               opacity="0.940002"
               id="g391"><path
                 d="M 465.146,339.103 L 480.185,339.103 L 480.185,354.142 L 465.146,354.142 L 465.146,339.103 z"
                 style="fill:#e51a23;fill-opacity:1;fill-rule:nonzero;stroke:none"
                 id="path393" /></g></g></g><g
           id="g395"><g
             id="g397" /><g
             id="g403"><g
               clip-path="url(#clipPath399)"
               opacity="0.75"
               id="g405"><path
                 d="M 447.496,356.756 L 462.532,356.756 L 462.532,371.802 L 447.496,371.802 L 447.496,356.756 z"
                 style="fill:#e51a23;fill-opacity:1;fill-rule:nonzero;stroke:none"
                 id="path407" /></g></g></g></g></g><path
       d="M 447.496,339.103 L 462.532,339.103 L 462.532,354.142 L 447.496,354.142 L 447.496,339.103 z"
       style="fill:#e51a23;fill-opacity:1;fill-rule:nonzero;stroke:none"
       id="path409" /><g
       id="g411"><g
         id="g413"
         clip-path="url(#clipPath415)"><g
           id="g419"><g
             id="g421" /><g
             id="g427"><g
               clip-path="url(#clipPath423)"
               opacity="0.240005"
               id="g429"><path
                 d="M 447.496,321.456 L 462.532,321.456 L 462.532,336.491 L 447.496,336.491 L 447.496,321.456 z"
                 style="fill:#e51a23;fill-opacity:1;fill-rule:nonzero;stroke:none"
                 id="path431" /></g></g></g><g
           id="g433"><g
             id="g435" /><g
             id="g441"><g
               clip-path="url(#clipPath437)"
               opacity="0.509995"
               id="g443"><path
                 d="M 444.878,371.802 L 429.839,371.802 L 429.839,356.756 L 444.878,356.756 L 444.878,371.802 z"
                 style="fill:#e51a23;fill-opacity:1;fill-rule:nonzero;stroke:none"
                 id="path445" /></g></g></g></g></g><path
       d="M 444.878,354.142 L 429.839,354.142 L 429.839,339.103 L 444.878,339.103 L 444.878,354.142 z"
       style="fill:#e51a23;fill-opacity:1;fill-rule:nonzero;stroke:none"
       id="path447" /><g
       id="g449"><g
         id="g451"
         clip-path="url(#clipPath453)"><g
           id="g457"><g
             id="g459" /><g
             id="g465"><g
               clip-path="url(#clipPath461)"
               opacity="0.490005"
               id="g467"><path
                 d="M 444.878,389.452 L 429.839,389.452 L 429.839,374.413 L 444.878,374.413 L 444.878,389.452 z"
                 style="fill:#e51a23;fill-opacity:1;fill-rule:nonzero;stroke:none"
                 id="path469" /></g></g></g><g
           id="g471"><g
             id="g473" /><g
             id="g479"><g
               clip-path="url(#clipPath475)"
               opacity="0.429993"
               id="g481"><path
                 d="M 444.878,407.099 L 429.839,407.099 L 429.839,392.064 L 444.878,392.064 L 444.878,407.099 z"
                 style="fill:#e51a23;fill-opacity:1;fill-rule:nonzero;stroke:none"
                 id="path483" /></g></g></g><g
           id="g485"><g
             id="g487" /><g
             id="g493"><g
               clip-path="url(#clipPath489)"
               opacity="0.929993"
               id="g495"><path
                 d="M 444.878,336.491 L 429.839,336.491 L 429.839,321.456 L 444.878,321.456 L 444.878,336.491 z"
                 style="fill:#e51a23;fill-opacity:1;fill-rule:nonzero;stroke:none"
                 id="path497" /></g></g></g></g></g><path
       d="M 444.878,318.841 L 429.839,318.841 L 429.839,303.805 L 444.878,303.805 L 444.878,318.841 z"
       style="fill:#e51a23;fill-opacity:1;fill-rule:nonzero;stroke:none"
       id="path499" /><g
       id="g501"><g
         id="g503"
         clip-path="url(#clipPath505)"><g
           id="g509"><g
             id="g511" /><g
             id="g517"><g
               clip-path="url(#clipPath513)"
               opacity="0.860001"
               id="g519"><path
                 d="M 462.532,318.841 L 447.496,318.841 L 447.496,303.805 L 462.532,303.805 L 462.532,318.841 z"
                 style="fill:#e51a23;fill-opacity:1;fill-rule:nonzero;stroke:none"
                 id="path521" /></g></g></g><g
           id="g523"><g
             id="g525" /><g
             id="g531"><g
               clip-path="url(#clipPath527)"
               opacity="0.770004"
               id="g533"><path
                 d="M 444.878,301.184 L 429.839,301.184 L 429.839,286.152 L 444.878,286.152 L 444.878,301.184 z"
                 style="fill:#e51a23;fill-opacity:1;fill-rule:nonzero;stroke:none"
                 id="path535" /></g></g></g></g></g><path
       d="M 462.532,301.184 L 447.496,301.184 L 447.496,286.152 L 462.532,286.152 L 462.532,301.184 z"
       style="fill:#e51a23;fill-opacity:1;fill-rule:nonzero;stroke:none"
       id="path537" /><g
       id="g539"><g
         id="g541"
         clip-path="url(#clipPath543)"><g
           id="g547"><g
             id="g549" /><g
             id="g555"><g
               clip-path="url(#clipPath551)"
               opacity="0.350006"
               id="g557"><path
                 d="M 480.186,301.184 L 465.147,301.184 L 465.147,286.152 L 480.186,286.152 L 480.186,301.184 z"
                 style="fill:#e51a23;fill-opacity:1;fill-rule:nonzero;stroke:none"
                 id="path559" /></g></g></g><g
           id="g561"><g
             id="g563" /><g
             id="g569"><g
               clip-path="url(#clipPath565)"
               opacity="0.0599976"
               id="g571"><path
                 d="M 444.878,283.53 L 429.839,283.53 L 429.839,268.495 L 444.878,268.495 L 444.878,283.53 z"
                 style="fill:#e51a23;fill-opacity:1;fill-rule:nonzero;stroke:none"
                 id="path573" /></g></g></g><g
           id="g575"><g
             id="g577" /><g
             id="g583"><g
               clip-path="url(#clipPath579)"
               opacity="0.490005"
               id="g585"><path
                 d="M 462.532,283.53 L 447.496,283.53 L 447.496,268.495 L 462.532,268.495 L 462.532,283.53 z"
                 style="fill:#e51a23;fill-opacity:1;fill-rule:nonzero;stroke:none"
                 id="path587" /></g></g></g><g
           id="g589"><g
             id="g591" /><g
             id="g597"><g
               clip-path="url(#clipPath593)"
               opacity="0.199997"
               id="g599"><path
                 d="M 480.186,283.53 L 465.147,283.53 L 465.147,268.495 L 480.186,268.495 L 480.186,283.53 z"
                 style="fill:#e51a23;fill-opacity:1;fill-rule:nonzero;stroke:none"
                 id="path601" /></g></g></g><g
           id="g603"
           transform="translate(344.5752,217.0918)"><path
             d="M 0,0 C 0,-0.434 -0.14,-0.765 -0.409,-1.022 C -0.677,-1.272 -1.012,-1.399 -1.41,-1.399 C -2.31,-1.399 -2.759,-0.931 -2.759,0 L -2.759,23.7 C -2.759,24.098 -2.631,24.419 -2.375,24.669 C -2.128,24.926 -1.804,25.05 -1.41,25.05 C -1.012,25.05 -0.677,24.926 -0.409,24.669 C -0.14,24.419 0,24.098 0,23.7 L 0,0 z"
             style="fill:#191919;fill-opacity:1;fill-rule:nonzero;stroke:none"
             id="path605" /></g><g
           id="g607"
           transform="translate(364.7021,224.9248)"><path
             d="M 0,0 C 1.15,-1.047 1.729,-2.361 1.729,-3.943 C 1.729,-5.377 1.191,-6.639 0.111,-7.724 C -0.937,-8.764 -2.213,-9.288 -3.719,-9.288 L -14.306,-9.288 C -14.701,-9.288 -15.02,-9.162 -15.275,-8.904 C -15.527,-8.661 -15.65,-8.334 -15.65,-7.938 C -15.65,-7.541 -15.527,-7.22 -15.275,-6.963 C -15.02,-6.713 -14.701,-6.593 -14.306,-6.593 L -3.719,-6.593 C -3.36,-6.593 -3.03,-6.519 -2.726,-6.374 C -2.419,-6.227 -2.119,-6.05 -1.834,-5.832 C -1.548,-5.546 -1.346,-5.24 -1.242,-4.916 C -1.135,-4.592 -1.08,-4.268 -1.08,-3.943 C -1.08,-3.549 -1.154,-3.189 -1.291,-2.868 C -1.439,-2.544 -1.623,-2.234 -1.834,-1.945 L -13.173,7.932 C -14.287,9.045 -14.843,10.374 -14.843,11.924 C -14.843,13.4 -14.306,14.662 -13.221,15.701 C -12.216,16.787 -10.941,17.322 -9.389,17.322 L -0.158,17.322 C 0.236,17.322 0.571,17.195 0.837,16.945 C 1.108,16.695 1.246,16.374 1.246,15.977 C 1.246,15.539 1.108,15.201 0.837,14.947 C 0.571,14.697 0.236,14.57 -0.158,14.57 L -9.389,14.57 C -10.107,14.57 -10.745,14.299 -11.281,13.764 C -11.785,13.256 -12.035,12.646 -12.035,11.924 C -12.035,11.525 -11.98,11.159 -11.873,10.817 C -11.764,10.476 -11.566,10.194 -11.281,9.982 C -11.207,9.908 -7.449,6.578 0,0"
             style="fill:#191919;fill-opacity:1;fill-rule:nonzero;stroke:none"
             id="path609" /></g><g
           id="g611"
           transform="translate(380.5728,218.332)"><path
             d="M 0,0 C 1.04,0 2.024,0.201 2.944,0.599 C 3.855,0.993 4.669,1.543 5.369,2.248 C 6.068,2.945 6.625,3.756 7.042,4.676 C 7.457,5.592 7.663,6.593 7.663,7.667 L 7.663,13.499 C 7.663,14.475 7.465,15.423 7.072,16.36 C 6.674,17.298 6.117,18.118 5.398,18.845 C 3.887,20.356 2.088,21.11 0,21.11 C -2.051,21.11 -3.867,20.356 -5.453,18.845 C -6.138,18.118 -6.667,17.298 -7.045,16.36 C -7.424,15.423 -7.611,14.475 -7.611,13.499 L -7.611,7.667 C -7.611,6.593 -7.414,5.592 -7.016,4.676 C -6.626,3.756 -6.083,2.945 -5.4,2.248 C -4.72,1.543 -3.908,0.993 -2.97,0.599 C -2.035,0.201 -1.044,0 0,0 M 7.34,20.789 C 8.309,19.813 9.058,18.7 9.58,17.438 C 10.101,16.177 10.363,14.87 10.363,13.499 L 10.363,7.667 C 10.363,6.227 10.092,4.877 9.551,3.622 C 9.014,2.36 8.265,1.262 7.308,0.327 C 6.357,-0.609 5.256,-1.346 3.994,-1.886 C 2.733,-2.421 1.403,-2.695 0,-2.695 C -1.445,-2.695 -2.794,-2.421 -4.05,-1.886 C -5.31,-1.346 -6.404,-0.609 -7.345,0.327 C -8.277,1.262 -9.013,2.36 -9.556,3.622 C -10.093,4.877 -10.365,6.227 -10.365,7.667 L -10.365,13.499 C -10.365,14.87 -10.104,16.177 -9.583,17.438 C -9.059,18.7 -8.311,19.813 -7.345,20.789 C -6.404,21.794 -5.301,22.544 -4.021,23.056 C -2.745,23.556 -1.409,23.81 0,23.81 C 1.403,23.81 2.733,23.556 3.994,23.056 C 5.256,22.544 6.369,21.794 7.34,20.789"
             style="fill:#191919;fill-opacity:1;fill-rule:nonzero;stroke:none"
             id="path613" /></g><g
           id="g615"
           transform="translate(409.7949,217.9619)"><path
             d="M 0,0 C 0.276,-0.257 0.41,-0.578 0.41,-0.976 C 0.41,-1.371 0.276,-1.698 0,-1.941 C -0.265,-2.199 -0.58,-2.325 -0.939,-2.325 L -3.476,-2.325 C -4.955,-2.325 -6.323,-2.051 -7.58,-1.516 C -8.839,-0.976 -9.944,-0.239 -10.899,0.697 C -11.85,1.632 -12.597,2.73 -13.135,3.992 C -13.677,5.247 -13.949,6.597 -13.949,8.037 L -13.949,37.133 C -13.949,37.527 -13.806,37.852 -13.515,38.104 C -13.229,38.355 -12.885,38.482 -12.49,38.482 C -12.13,38.482 -11.815,38.355 -11.544,38.104 C -11.272,37.852 -11.14,37.527 -11.14,37.133 L -11.14,24.18 L -2.884,24.18 C -2.486,24.18 -2.151,24.056 -1.885,23.799 C -1.614,23.549 -1.477,23.228 -1.477,22.83 C -1.477,22.428 -1.614,22.111 -1.885,21.857 C -2.151,21.601 -2.486,21.48 -2.884,21.48 L -11.14,21.48 L -11.14,8.037 C -11.14,6.963 -10.945,5.962 -10.545,5.046 C -10.15,4.126 -9.604,3.315 -8.899,2.618 C -8.2,1.913 -7.391,1.363 -6.477,0.969 C -5.555,0.571 -4.555,0.37 -3.476,0.37 L -0.939,0.37 C -0.58,0.37 -0.265,0.25 0,0"
             style="fill:#191919;fill-opacity:1;fill-rule:nonzero;stroke:none"
             id="path617" /></g><g
           id="g619"
           transform="translate(422.7324,218.332)"><path
             d="M 0,0 C 1.037,0 2.019,0.201 2.94,0.599 C 3.856,0.993 4.663,1.543 5.368,2.248 C 6.072,2.945 6.631,3.756 7.04,4.676 C 7.452,5.592 7.664,6.593 7.664,7.667 L 7.664,13.499 C 7.664,14.475 7.463,15.423 7.068,16.36 C 6.674,17.298 6.111,18.118 5.393,18.845 C 3.881,20.356 2.077,21.11 0,21.11 C -2.055,21.11 -3.873,20.356 -5.458,18.845 C -6.144,18.118 -6.671,17.298 -7.051,16.36 C -7.425,15.423 -7.617,14.475 -7.617,13.499 L -7.617,7.667 C -7.617,6.593 -7.419,5.592 -7.02,4.676 C -6.622,3.756 -6.084,2.945 -5.404,2.248 C -4.715,1.543 -3.912,0.993 -2.971,0.599 C -2.041,0.201 -1.051,0 0,0 M 7.336,20.789 C 8.309,19.813 9.052,18.7 9.573,17.438 C 10.099,16.177 10.359,14.87 10.359,13.499 L 10.359,7.667 C 10.359,6.227 10.092,4.877 9.549,3.622 C 9.013,2.36 8.266,1.262 7.308,0.327 C 6.353,-0.609 5.25,-1.346 3.988,-1.886 C 2.729,-2.421 1.396,-2.695 0,-2.695 C -1.44,-2.695 -2.793,-2.421 -4.049,-1.886 C -5.311,-1.346 -6.408,-0.609 -7.346,0.327 C -8.281,1.262 -9.016,2.36 -9.562,3.622 C -10.1,4.877 -10.364,6.227 -10.364,7.667 L -10.364,13.499 C -10.364,14.87 -10.11,16.177 -9.587,17.438 C -9.065,18.7 -8.316,19.813 -7.346,20.789 C -6.408,21.794 -5.3,22.544 -4.026,23.056 C -2.751,23.556 -1.405,23.81 0,23.81 C 1.396,23.81 2.729,23.556 3.988,23.056 C 5.25,22.544 6.37,21.794 7.336,20.789"
             style="fill:#191919;fill-opacity:1;fill-rule:nonzero;stroke:none"
             id="path621" /></g><g
           id="g623"
           transform="translate(468.2295,241.4648)"><path
             d="M 0,0 C 1.043,-0.451 1.952,-1.054 2.728,-1.808 C 3.496,-2.559 4.123,-3.46 4.592,-4.507 C 5.053,-5.55 5.293,-6.663 5.293,-7.851 L 5.293,-24.479 C 5.293,-24.874 5.151,-25.201 4.884,-25.444 C 4.616,-25.702 4.281,-25.828 3.887,-25.828 C 3.488,-25.828 3.157,-25.702 2.89,-25.444 C 2.614,-25.201 2.48,-24.874 2.48,-24.479 L 2.48,-7.851 C 2.48,-7.065 2.333,-6.314 2.022,-5.613 C 1.72,-4.912 1.308,-4.288 0.782,-3.753 C 0.258,-3.21 -0.349,-2.787 -1.054,-2.484 C -1.751,-2.178 -2.502,-2.022 -3.291,-2.022 L -5.5,-2.022 C -6.293,-2.022 -7.044,-2.178 -7.745,-2.484 C -8.442,-2.787 -9.052,-3.21 -9.549,-3.753 C -10.057,-4.288 -10.462,-4.912 -10.771,-5.613 C -11.071,-6.314 -11.227,-7.065 -11.227,-7.851 L -11.227,-24.479 C -11.227,-24.874 -11.367,-25.201 -11.663,-25.444 C -11.945,-25.702 -12.272,-25.828 -12.629,-25.828 C -13.026,-25.828 -13.358,-25.702 -13.63,-25.444 C -13.9,-25.201 -14.031,-24.874 -14.031,-24.479 L -14.031,-7.851 C -14.031,-7.065 -14.187,-6.314 -14.489,-5.613 C -14.799,-4.912 -15.222,-4.288 -15.761,-3.753 C -16.3,-3.21 -16.921,-2.787 -17.618,-2.484 C -18.323,-2.178 -19.07,-2.022 -19.859,-2.022 L -22.079,-2.022 C -22.83,-2.022 -23.563,-2.178 -24.264,-2.484 C -24.962,-2.787 -25.575,-3.192 -26.097,-3.693 C -26.618,-4.204 -27.033,-4.81 -27.337,-5.508 C -27.64,-6.209 -27.815,-6.935 -27.854,-7.692 L -27.854,-24.479 C -27.854,-24.874 -27.985,-25.201 -28.253,-25.444 C -28.524,-25.702 -28.855,-25.828 -29.257,-25.828 C -29.651,-25.828 -29.979,-25.702 -30.223,-25.444 C -30.479,-25.201 -30.603,-24.874 -30.603,-24.479 L -30.603,-0.673 C -30.603,-0.275 -30.479,0.046 -30.223,0.296 C -29.979,0.553 -29.651,0.677 -29.257,0.677 C -28.855,0.677 -28.524,0.553 -28.253,0.296 C -27.985,0.046 -27.854,-0.275 -27.854,-0.673 L -27.854,-1.593 C -26.23,-0.077 -24.306,0.677 -22.079,0.677 L -19.859,0.677 C -18.351,0.677 -16.97,0.328 -15.701,-0.373 C -14.447,-1.078 -13.422,-2.005 -12.629,-3.157 C -11.875,-2.005 -10.874,-1.078 -9.634,-0.373 C -8.394,0.328 -7.012,0.677 -5.5,0.677 L -3.291,0.677 C -2.143,0.677 -1.043,0.451 0,0"
             style="fill:#191919;fill-opacity:1;fill-rule:nonzero;stroke:none"
             id="path625" /></g><g
           id="g627"
           transform="translate(493.0605,220.0088)"><path
             d="M 0,0 C 1.152,1.152 1.73,2.523 1.73,4.102 L 1.73,10.525 C 1.329,10.236 0.92,10.05 0.508,9.958 C 0.1,9.874 -0.324,9.821 -0.754,9.821 L -2.104,9.821 L -6.638,9.821 C -8.263,9.821 -9.619,9.274 -10.711,8.175 C -11.814,7.083 -12.357,5.727 -12.357,4.102 C -12.357,3.31 -12.209,2.565 -11.898,1.864 C -11.6,1.163 -11.19,0.55 -10.687,0.032 C -10.187,-0.493 -9.58,-0.905 -8.883,-1.212 C -8.178,-1.519 -7.431,-1.677 -6.638,-1.677 L -3.992,-1.677 C -3.238,-1.677 -2.512,-1.519 -1.807,-1.212 C -1.109,-0.905 -0.507,-0.5 0,0 M -1.567,22.133 C -0.771,22.133 0,21.988 0.751,21.703 C 1.512,21.41 2.175,20.983 2.749,20.402 C 3.937,19.215 4.532,17.763 4.532,16.029 L 4.532,11.822 L 4.532,-3.022 C 4.532,-3.418 4.408,-3.745 4.155,-3.988 C 3.901,-4.246 3.584,-4.372 3.183,-4.372 C 2.78,-4.372 2.442,-4.246 2.157,-3.988 C 1.871,-3.745 1.73,-3.418 1.73,-3.022 L 1.73,-2.156 C 0.145,-3.636 -1.765,-4.372 -3.992,-4.372 L -6.638,-4.372 C -7.825,-4.372 -8.936,-4.147 -9.961,-3.692 C -10.99,-3.248 -11.885,-2.643 -12.66,-1.889 C -13.432,-1.134 -14.041,-0.243 -14.496,0.782 C -14.943,1.808 -15.169,2.914 -15.169,4.102 C -15.169,5.258 -14.954,6.343 -14.521,7.372 C -14.091,8.394 -13.478,9.32 -12.688,10.148 C -11.892,10.941 -10.979,11.551 -9.93,11.984 C -8.89,12.414 -7.79,12.629 -6.638,12.629 L -2.104,12.629 L -0.754,12.629 C -0.031,12.629 0.575,12.865 1.079,13.33 C 1.512,13.803 1.73,14.391 1.73,15.11 L 1.73,15.282 L 1.73,16.029 C 1.73,17.002 1.399,17.813 0.751,18.465 C 0.469,18.75 0.124,18.982 -0.271,19.162 C -0.669,19.342 -1.103,19.434 -1.567,19.434 L -4.048,19.434 L -5.183,19.434 L -11.769,19.434 C -12.205,19.434 -12.551,19.554 -12.822,19.811 C -13.09,20.064 -13.224,20.381 -13.224,20.783 C -13.224,21.181 -13.09,21.502 -12.822,21.752 C -12.551,22.009 -12.205,22.133 -11.769,22.133 L -5.183,22.133 L -4.048,22.133 L -1.567,22.133 z"
             style="fill:#191919;fill-opacity:1;fill-rule:nonzero;stroke:none"
             id="path629" /></g><text
           transform="matrix(1,0,0,-1,340.8105,176.2852)"
           id="text631"><tspan
             style="fill:#191919;fill-opacity:1;fill-rule:nonzero;stroke:none;font-family:Colaborate-Thin;font-variant:normal;font-weight:100;font-stretch:normal;font-size:32.2856;writing-mode:lr;-inkscape-font-specification:Colaborate-Thin"
             x="0 21.1793536 36.0630152 43.4887032 58.2432224 68.5746144"
             y="0"
             sodipodi:role="line"
             id="tspan633">we are</tspan><tspan
             style="fill:#e51a23;fill-opacity:1;fill-rule:nonzero;stroke:none;font-family:Colaborate-Thin;font-variant:normal;font-weight:100;font-stretch:normal;font-size:32.2856;writing-mode:lr;-inkscape-font-specification:Colaborate-Thin"
             x="83.458276"
             y="0"
             id="tspan635"> </tspan></text>
<text
           transform="matrix(1,0,0,-1,431.69446,176.2852)"
           id="text637"><tspan
             style="fill:#e51a23;fill-opacity:1;fill-rule:nonzero;stroke:none;font-family:Colaborate-Regular;font-variant:normal;font-weight:normal;font-stretch:normal;font-size:32.2856;writing-mode:lr;-inkscape-font-specification:Colaborate-Regular"
             x="0 16.6916552 33.1895968 49.3646824"
             y="0"
             sodipodi:role="line"
             id="tspan639">open</tspan></text>
</g></g></g></svg>